<?xml version="1.0" encoding="utf-8"?>
<!-- Generator: Adobe Illustrator 21.0.0, SVG Export Plug-In . SVG Version: 6.00 Build 0)  -->
<svg version="1.1" id="Layer_1" xmlns="http://www.w3.org/2000/svg" xmlns:xlink="http://www.w3.org/1999/xlink" x="0px" y="0px"
	 viewBox="0 0 512 512" style="enable-background:new 0 0 512 512;" xml:space="preserve">
<style type="text/css">
	.st0{fill:#FFFFFF;}
	.st1{fill:#FBC749;}
	.st2{fill:#75B4E2;}
	.st3{fill:#E85558;}
	.st4{fill:#17171D;}
</style>
<g id="Ask_A_Lawyer">
	<g>
		<path class="st0" d="M311.5,203.6l0-47c-17.8-1.3-34.7-9-47.4-21.6c-13.6,13.5-32.4,21.8-53,21.8h-28l0,46.8
			c0,35.4,28.8,64.2,64.2,64.2S311.5,239,311.5,203.6z M256,163.1h34.9v11.3h-11.8v11.8h-11.3v-11.8H256V163.1z M238.5,174.3h-11.8
			v11.8h-11.3v-11.8h-11.8v-11.3h34.9V174.3z"/>
		<path class="st1" d="M311.5,145.3l0-11.6c0-18.2-10.5-34-25.7-41.7c-1.8,12.8-6.9,24.6-14.3,34.5
			C282.2,137.4,296.4,144,311.5,145.3z"/>
		<path class="st1" d="M211.1,145.6c33.1,0,60.5-25.2,63.9-57.4c-3.3-0.7-6.7-1.1-10.2-1.1h-34.9c-25.8,0-46.8,21-46.8,46.8l0,11.8
			H211.1z"/>
		<polygon class="st1" points="258.4,351.1 291.7,340 278.7,314 276.9,314 		"/>
		<path class="st0" d="M329,186.2V160c0-1.7-1.4-3.1-3.1-3.1h-3.1l0,39.7C326.4,194.6,329,190.7,329,186.2z"/>
		<path class="st0" d="M154.3,244.2H60.8v41.1H110l9.5,9.5v-9.5h34.9V244.2z M83.3,268.8H72v-11.3h11.3V268.8z M102.6,268.8H91.3
			v-11.3h11.3V268.8z M123.8,268.8h-11.3v-11.3h11.3V268.8z M143.2,268.8h-11.3v-11.3h11.3V268.8z"/>
		<polygon class="st1" points="236.2,351.1 217.6,314 215.8,314 202.8,340 		"/>
		<path class="st0" d="M168.7,156.9c-1.7,0-3.1,1.4-3.1,3.1v26.2c0,4.5,2.5,8.4,6.2,10.4l0-39.7H168.7z"/>
		<polygon class="st1" points="252.9,425 276.6,425 276.6,356.9 252.9,364.8 		"/>
		<path class="st2" d="M299.7,314h-8.4l16.3,32.6l-19.8,6.6V425h76l0-46.7C363.9,342.8,335.1,314,299.7,314z"/>
		<path class="st2" d="M203.2,314h-8.3c-35.4,0-64.2,28.8-64.2,64.2V425h76v-71.8l-19.8-6.6L203.2,314z"/>
		<path class="st3" d="M375.1,298.8l9.5-9.5h66.5V174.3h-93.5v114.9h17.5V298.8z M410.1,272.8h-11.3v-11.3h11.3V272.8z M381.3,198
			h46.2v46.2h-17.5V256h-11.3v-23.1h17.5v-23.7h-23.7v11.8h-11.3V198z"/>
		<polygon class="st1" points="218,425 241.6,425 241.6,364.8 218,356.9 		"/>
		<path class="st0" d="M267.8,276.2c-6.5,1.9-13.4,2.9-20.6,2.9c-7.1,0-14-1-20.6-2.9v30.8l20.6,41.1l20.6-41.1V276.2z"/>
		<path class="st4" d="M299.7,302.8h-20.6V272c24.3-11.4,41.6-35.3,43.5-63.5c10.1-2.5,17.6-11.6,17.6-22.4V160
			c0-7.9-6.4-14.4-14.4-14.4h-3.1l0-11.8c0-32-26-58-58-58h-34.9c-32,0-58,26-58,58l0,11.8h-3.1c-7.9,0-14.4,6.4-14.4,14.4v26.2
			c0,10.9,7.5,20,17.6,22.4c1.8,28.1,19.1,52.1,43.5,63.5v30.7h-20.6c-41.6,0-75.5,33.9-75.5,75.5v58h255.7l0-58
			C375.1,336.6,341.3,302.8,299.7,302.8z M325.9,156.9c1.7,0,3.1,1.4,3.1,3.1v26.2c0,4.5-2.5,8.4-6.2,10.4l0-39.7H325.9z
			 M165.6,186.2V160c0-1.7,1.4-3.1,3.1-3.1h3.1l0,39.7C168.1,194.6,165.6,190.7,165.6,186.2z M311.5,133.8l0,11.6
			c-15.1-1.3-29.3-8-40-18.8c7.4-9.9,12.5-21.7,14.3-34.5C301,99.8,311.5,115.6,311.5,133.8z M229.8,87h34.9c3.5,0,6.9,0.4,10.2,1.1
			c-3.4,32.2-30.7,57.4-63.9,57.4h-28l0-11.8C183.1,108,204,87,229.8,87z M183.1,203.6l0-46.8h28c20.6,0,39.4-8.3,53-21.8
			c12.7,12.6,29.6,20.2,47.4,21.6l0,47c0,35.4-28.8,64.2-64.2,64.2S183.1,239,183.1,203.6z M291.7,340l-33.3,11.1l18.6-37.1h1.8
			L291.7,340z M215.8,314h1.8l18.6,37.1L202.8,340L215.8,314z M206.7,425h-76v-46.7c0-35.4,28.8-64.2,64.2-64.2h8.3l-16.3,32.6
			l19.8,6.6V425z M241.6,425H218v-68l23.7,7.9V425z M226.7,307.1v-30.8c6.5,1.9,13.4,2.9,20.6,2.9c7.1,0,14-1,20.6-2.9v30.8
			l-20.6,41.1L226.7,307.1z M276.6,425h-23.7v-60.2l23.7-7.9V425z M287.8,425v-71.8l19.8-6.6L291.3,314h8.4
			c35.4,0,64.2,28.8,64.2,64.2l0,46.7H287.8z"/>
		<polygon class="st4" points="203.6,174.3 215.5,174.3 215.5,186.2 226.7,186.2 226.7,174.3 238.5,174.3 238.5,163.1 203.6,163.1 
					"/>
		<polygon class="st4" points="267.8,186.2 279.1,186.2 279.1,174.3 290.9,174.3 290.9,163.1 256,163.1 256,174.3 267.8,174.3 		"/>
		<path class="st4" d="M130.7,296.6h34.9v-63.6h-116v63.6h55.7l25.4,25.4V296.6z M119.5,294.8l-9.5-9.5H60.8v-41.1h93.5v41.1h-34.9
			V294.8z"/>
		<rect x="91.3" y="257.6" class="st4" width="11.3" height="11.3"/>
		<rect x="112.6" y="257.6" class="st4" width="11.3" height="11.3"/>
		<rect x="72" y="257.6" class="st4" width="11.3" height="11.3"/>
		<rect x="131.9" y="257.6" class="st4" width="11.3" height="11.3"/>
		<path class="st4" d="M346.4,300.5h17.5l0,25.4l25.4-25.4h73.1V163.1h-116V300.5z M357.7,174.3h93.5v114.9h-66.5l-9.5,9.5v-9.5
			h-17.5V174.3z"/>
		<rect x="398.8" y="261.6" class="st4" width="11.3" height="11.3"/>
		<polygon class="st4" points="392.6,209.3 416.3,209.3 416.3,232.9 398.8,232.9 398.8,256 410.1,256 410.1,244.2 427.5,244.2 
			427.5,198 381.3,198 381.3,221.1 392.6,221.1 		"/>
	</g>
</g>
</svg>
